<?xml version="1.0" standalone="no"?>
<!DOCTYPE svg PUBLIC "-//W3C//DTD SVG 20010904//EN"
 "http://www.w3.org/TR/2001/REC-SVG-20010904/DTD/svg10.dtd">
<svg version="1.0" xmlns="http://www.w3.org/2000/svg"
 width="225.000000pt" height="225.000000pt" viewBox="0 0 225.000000 225.000000"
 preserveAspectRatio="xMidYMid meet">

<g transform="translate(0.000000,225.000000) scale(0.100000,-0.100000)"
fill="#000000" stroke="none">
<path d="M1065 2215 c-55 -20 -113 -83 -121 -133 l-6 -39 -107 -6 c-58 -3
-113 -8 -122 -12 -23 -9 -39 -49 -39 -95 l0 -40 -87 -1 c-141 0 -221 -12 -238
-35 -12 -16 -14 -140 -15 -902 0 -843 1 -883 18 -900 26 -26 196 -32 856 -31
593 1 681 5 702 34 22 29 20 1771 -1 1799 -17 23 -97 35 -237 35 l-88 1 0 39
c0 52 -14 88 -37 94 -10 3 -66 8 -124 12 l-107 7 -6 39 c-7 42 -53 102 -95
123 -43 22 -103 27 -146 11z m115 -80 c55 -29 76 -108 46 -179 -18 -44 -52
-66 -101 -66 -49 0 -83 22 -101 66 -51 123 47 235 156 179z m-510 -400 l0 -35
455 0 455 0 0 35 0 35 115 0 115 0 0 -815 0 -815 -685 0 -685 0 0 815 0 815
115 0 115 0 0 -35z"/>
<path d="M914 1500 c-75 -77 -93 -90 -121 -90 -27 0 -35 6 -49 33 -9 17 -18
33 -19 35 -2 2 -15 -4 -29 -13 -22 -15 -24 -20 -14 -33 10 -12 10 -16 1 -19
-9 -3 -13 -32 -13 -99 l0 -94 95 0 95 0 0 73 1 72 74 60 75 60 0 53 c0 28 -2
52 -3 52 -2 0 -44 -40 -93 -90z m-158 -165 c25 -34 28 -35 45 -19 18 16 19 16
19 -19 l0 -37 -55 0 -55 0 0 55 c0 30 4 55 9 55 6 0 22 -16 37 -35z"/>
<path d="M973 1355 c0 -13 41 -15 304 -15 263 0 303 2 303 15 0 13 -40 15
-303 15 -263 0 -304 -2 -304 -15z"/>
<path d="M1275 1290 c-229 -4 -301 -8 -303 -17 -1 -10 64 -13 303 -13 298 0
305 0 305 20 0 11 -1 19 -2 18 -2 -2 -138 -5 -303 -8z"/>
<path d="M915 1080 c-75 -75 -95 -90 -121 -90 -25 0 -34 7 -50 35 -21 40 -22
40 -52 19 -19 -13 -21 -18 -10 -32 10 -12 10 -16 1 -19 -9 -3 -13 -32 -13 -99
l0 -95 93 3 92 3 3 70 3 70 74 60 74 60 1 53 c0 28 -1 52 -3 52 -1 0 -43 -40
-92 -90z m-159 -165 c25 -34 28 -35 45 -19 18 16 19 16 19 -19 l0 -37 -55 0
-55 0 0 55 c0 30 4 55 9 55 6 0 22 -16 37 -35z"/>
<path d="M973 935 c0 -13 41 -15 304 -15 263 0 303 2 303 15 0 13 -40 15 -303
15 -263 0 -304 -2 -304 -15z"/>
<path d="M977 860 c-5 -20 0 -20 299 -20 297 0 304 0 304 20 0 20 -7 20 -299
20 -290 0 -299 -1 -304 -20z"/>
<path d="M670 480 l0 -90 95 0 95 0 0 90 0 90 -95 0 -95 0 0 -90z m150 0 l0
-60 -55 0 -55 0 0 60 0 60 55 0 55 0 0 -60z"/>
<path d="M977 520 c-5 -20 0 -20 299 -20 248 0 304 2 304 13 0 16 -181 27
-441 27 -148 0 -157 -1 -162 -20z"/>
<path d="M980 440 c0 -20 7 -20 300 -20 293 0 300 0 300 20 0 20 -7 20 -300
20 -293 0 -300 0 -300 -20z"/>
</g>
</svg>
